<svg xmlns="http://www.w3.org/2000/svg" width="26" height="20" viewBox="0 0 26 20">
    <g fill="none" fill-rule="evenodd" stroke-linecap="round" stroke-linejoin="round">
        <g stroke="#3D3D4F" stroke-width="1.2">
            <g transform="translate(-856 -423) translate(857 424)">
                <path d="M18.5 3V2c0-1.105-.895-2-2-2h-14C1.395 0 .5.895.5 2v9c0 1.105.895 2 2 2h1"/>
                <rect width="18" height="13" x="5.5" y="5" rx="2"/>
                <path d="M8.5 15l3.276-6.553c.137-.274.418-.447.724-.447.31 0 .598.162.759.428L16.02 13l1.18-1.6c.188-.253.485-.401.8-.4.306 0 .587.173.724.447L20.5 15h-12z"/>
            </g>
        </g>
    </g>
</svg>
