<svg width="84" height="74" viewBox="0 0 84 74" fill="none" xmlns="http://www.w3.org/2000/svg">
<path id="Shape Copy" fill-rule="evenodd" clip-rule="evenodd" d="M39.2787 1.59771C39.789 0.620606 40.8567 0 42.0275 0C43.1982 0 44.266 0.620606 44.7763 1.59771L56.0709 22.7717L81.3844 26.1705C82.5368 26.3256 83.4938 27.0749 83.8519 28.1024C84.21 29.1299 83.9069 30.2568 83.0704 31.008L64.7449 47.4351L69.0697 70.6597C69.2663 71.7208 68.7973 72.7934 67.8593 73.4278C66.9213 74.0621 65.6765 74.1485 64.6472 73.6506L42.0214 62.6954L19.3528 73.6789C18.3235 74.1768 17.0787 74.0904 16.1407 73.4561C15.2027 72.8217 14.7337 71.7491 14.9303 70.6881L19.2551 47.4635L0.929623 31.0363C0.0931084 30.2851 -0.210001 29.1582 0.148098 28.1307C0.506196 27.1032 1.46318 26.3539 2.61556 26.1988L27.9352 22.8001L39.2787 1.59771Z" fill="#FFB42D"/>
</svg>
