<svg width="20" height="20" viewBox="0 0 20 20" fill="none" xmlns="http://www.w3.org/2000/svg">
<path fill-rule="evenodd" clip-rule="evenodd" d="M15.625 1.875H18.3337C19.2544 1.875 20 2.62063 20 3.54125V18.3331C20 19.2537 19.2544 20 18.3337 20H1.66688C0.74625 20 0 19.2537 0 18.3331V3.54125C0 2.62063 0.74625 1.875 1.66688 1.875H4.375V0.625C4.375 0.279375 4.655 0 5 0C5.345 0 5.625 0.279375 5.625 0.625V1.875H9.375V0.625C9.375 0.279375 9.655 0 10 0C10.345 0 10.625 0.279375 10.625 0.625V1.875H14.375V0.625C14.375 0.279375 14.6544 0 15 0C15.3456 0 15.625 0.279375 15.625 0.625V1.875ZM18.3337 18.75C18.5631 18.75 18.75 18.5631 18.75 18.3331V3.54125C18.75 3.31187 18.5631 3.125 18.3337 3.125H15.625V4.375C15.625 4.72062 15.3456 5 15 5C14.6544 5 14.375 4.72062 14.375 4.375V3.125H10.625V4.375C10.625 4.72062 10.345 5 10 5C9.655 5 9.375 4.72062 9.375 4.375V3.125H5.625V4.375C5.625 4.72062 5.345 5 5 5C4.655 5 4.375 4.72062 4.375 4.375V3.125H1.66688C1.43687 3.125 1.25 3.31187 1.25 3.54125V18.3331C1.25 18.5631 1.43687 18.75 1.66688 18.75H18.3337Z" fill="#4849DC"/>
<rect x="4.375" y="7.5" width="2.5" height="1.875" fill="#4849DC"/>
<rect x="4.375" y="10.625" width="2.5" height="1.875" fill="#4849DC"/>
<rect x="4.375" y="13.75" width="2.5" height="1.875" fill="#4849DC"/>
<rect x="8.75" y="13.75" width="2.5" height="1.875" fill="#4849DC"/>
<rect x="8.75" y="10.625" width="2.5" height="1.875" fill="#4849DC"/>
<rect x="8.75" y="7.5" width="2.5" height="1.875" fill="#4849DC"/>
<rect x="13.125" y="13.75" width="2.5" height="1.875" fill="#4849DC"/>
<rect x="13.125" y="10.625" width="2.5" height="1.875" fill="#4849DC"/>
<rect x="13.125" y="7.5" width="2.5" height="1.875" fill="#4849DC"/>
</svg>
