<svg id="Layer_1" data-name="Layer 1" xmlns="http://www.w3.org/2000/svg" viewBox="0 0 441.73 106.41"><defs><style>.cls-1{fill:#3d3d4f;}.cls-2{fill:#1ed500;}</style></defs><title>LoyaltyLoopLogo2021</title><path class="cls-1" d="M211.41,164.32a5.73,5.73,0,0,0-4.49-2.1,8,8,0,0,0-7.42,6.55,5.46,5.46,0,0,0,5.38,6.56,8.15,8.15,0,0,0,5.12-2.1l-.33,2.18a9.37,9.37,0,0,1-5,1.55,6.85,6.85,0,0,1-7-8.12,10.06,10.06,0,0,1,9.55-8.25,6.69,6.69,0,0,1,4.5,1.55Z" transform="translate(-81.35 -75.82)"/><path class="cls-1" d="M220.52,176.69h-1.68l.21-1.36h0a4.89,4.89,0,0,1-3.65,1.63c-2.9,0-4.35-2.45-3.91-5.18a5.88,5.88,0,0,1,5.59-5.23,3.56,3.56,0,0,1,3.11,1.68h0l.21-1.41h1.68Zm-7.32-5c-.32,1.93.54,3.76,2.64,3.76a4.08,4.08,0,0,0,3.89-3.74c.31-2-.68-3.57-2.75-3.57A4.06,4.06,0,0,0,213.2,171.65Z" transform="translate(-81.35 -75.82)"/><path class="cls-1" d="M225.84,168.23h0a5,5,0,0,1,3.67-1.68c2.9,0,4.33,2.5,3.89,5.23a5.82,5.82,0,0,1-5.57,5.18,3.47,3.47,0,0,1-3.12-1.66h-.05l-1.09,6.93h-1.68l2.44-15.41h1.68Zm-.63,3.42c-.32,1.93.54,3.76,2.64,3.76a4.07,4.07,0,0,0,3.89-3.74c.31-2-.67-3.57-2.75-3.57A4.06,4.06,0,0,0,225.21,171.65Z" transform="translate(-81.35 -75.82)"/><path class="cls-1" d="M236.57,176.69h-1.68l1.32-8.31h-1l.23-1.56h1l.57-3.55h1.68l-.57,3.55h1.77l-.24,1.56h-1.76Z" transform="translate(-81.35 -75.82)"/><path class="cls-1" d="M241.88,172.32c-.27,1.66-.29,3.09,1.74,3.09s2.44-1.43,2.71-3.09l.86-5.5h1.68l-.88,5.69c-.42,2.63-1.7,4.45-4.62,4.45s-3.61-1.82-3.19-4.45l.88-5.69h1.68Z" transform="translate(-81.35 -75.82)"/><path class="cls-1" d="M253.16,167.89h0a3.12,3.12,0,0,1,2.41-1.34A2.59,2.59,0,0,1,257,167L256,168.54a1.32,1.32,0,0,0-.92-.44c-1.85,0-2.31,2.38-2.52,3.66l-.78,4.93h-1.68l1.56-9.87h1.68Z" transform="translate(-81.35 -75.82)"/><path class="cls-1" d="M259,176.69h-1.68l1.55-9.87h1.68Zm2.49-13.58a1.44,1.44,0,0,1-1.38,1.19,1,1,0,0,1-1-1.19,1.51,1.51,0,0,1,1.41-1.2A1,1,0,0,1,261.49,163.11Z" transform="translate(-81.35 -75.82)"/><path class="cls-1" d="M265.34,168h0a4,4,0,0,1,3.06-1.47c2.73,0,3.05,2,2.67,4.28l-.92,5.86h-1.68l.88-5.56c.25-1.6.36-3-1.6-3-2.31,0-2.79,2.15-3.08,3.91l-.74,4.68h-1.68l1.56-9.87h1.68Z" transform="translate(-81.35 -75.82)"/><path class="cls-1" d="M282.16,176.21a7.3,7.3,0,0,1-1.68,4.24,5.67,5.67,0,0,1-4.1,1.74c-2.75,0-4.51-1.74-4.13-4.53h1.68a2.44,2.44,0,0,0,2.66,3c2.61,0,3.49-1.91,3.82-4.14l.19-1.17h0a5.15,5.15,0,0,1-3.67,1.63c-2.88,0-4.33-2.41-3.89-5.16s2.69-5.25,5.61-5.25a3.44,3.44,0,0,1,3.09,1.68h0l.21-1.41h1.68Zm-7.41-4.56c-.32,1.93.54,3.76,2.64,3.76a4.08,4.08,0,0,0,3.89-3.74c.31-2-.68-3.57-2.76-3.57A4.06,4.06,0,0,0,274.75,171.65Z" transform="translate(-81.35 -75.82)"/><path class="cls-1" d="M293.27,176.69h-2.94l1.24-7.83h-1l.4-2.48h1l.48-3c.4-2.52,1.78-4.73,4.62-4.73a2.8,2.8,0,0,1,1.36.34l-.42,2.62a2.39,2.39,0,0,0-1.13-.35c-1.3,0-1.43,1.7-1.58,2.54l-.39,2.6h2.35l-.4,2.48h-2.35Z" transform="translate(-81.35 -75.82)"/><path class="cls-1" d="M299.9,172c-.19,1.3.07,2.77,1.6,2.77a2.63,2.63,0,0,0,2.2-1.41l2.65.44a5.79,5.79,0,0,1-5.21,3.22c-3.19,0-4.76-2.27-4.28-5.4s2.54-5.58,5.88-5.58,4.49,2.49,4,5.6l-.06.36Zm4.31-1.83c0-1.05-.49-2.08-1.62-2.08a2.62,2.62,0,0,0-2.31,2.08Z" transform="translate(-81.35 -75.82)"/><path class="cls-1" d="M310.63,172c-.18,1.3.07,2.77,1.6,2.77a2.61,2.61,0,0,0,2.2-1.41l2.65.44a5.78,5.78,0,0,1-5.21,3.22c-3.19,0-4.76-2.27-4.28-5.4s2.54-5.58,5.88-5.58,4.49,2.49,4,5.6l-.06.36Zm4.31-1.83c0-1.05-.48-2.08-1.62-2.08a2.62,2.62,0,0,0-2.31,2.08Z" transform="translate(-81.35 -75.82)"/><path class="cls-1" d="M325.23,175.72h0a4.09,4.09,0,0,1-3,1.31c-3,0-4.31-2.75-3.87-5.55s2.61-5.43,5.57-5.43a3.08,3.08,0,0,1,2.62,1.28h0l1.33-8.44h2.93L328,176.69h-2.94Zm1-4.19c.21-1.39-.46-2.88-2-2.88a3.28,3.28,0,0,0-2.9,2.88c-.21,1.38.47,2.89,2,2.89A3.29,3.29,0,0,0,326.19,171.53Z" transform="translate(-81.35 -75.82)"/><path class="cls-1" d="M332.94,158.89h2.94l-1.33,8.44a4.45,4.45,0,0,1,3.05-1.28c2.92,0,4.28,2.72,3.84,5.43s-2.6,5.55-5.65,5.55a2.86,2.86,0,0,1-2.54-1.31h0l-.15,1h-2.94Zm5.52,12.64c.21-1.39-.46-2.88-2-2.88a3.27,3.27,0,0,0-2.89,2.88c-.21,1.38.46,2.89,2,2.89A3.3,3.3,0,0,0,338.46,171.53Z" transform="translate(-81.35 -75.82)"/><path class="cls-1" d="M351.94,176.69H349l.15-.94h0a4.26,4.26,0,0,1-3,1.28c-3,0-4.3-2.75-3.86-5.55s2.6-5.43,5.57-5.43a3.17,3.17,0,0,1,2.66,1.3l.17-1h2.9Zm-1.78-5.16c.21-1.39-.49-2.88-2-2.88a3.28,3.28,0,0,0-2.9,2.88c-.21,1.38.46,2.89,2,2.89A3.32,3.32,0,0,0,350.16,171.53Z" transform="translate(-81.35 -75.82)"/><path class="cls-1" d="M362.42,169.53a2.42,2.42,0,0,0-2-1,3.47,3.47,0,0,0-3.1,3.07c-.26,1.62.56,3,2.24,3a3.37,3.37,0,0,0,2.23-1l-.46,2.84a5.74,5.74,0,0,1-2.65.63c-3,0-4.81-2.5-4.32-5.46a6.45,6.45,0,0,1,6.21-5.52,4,4,0,0,1,2.29.65Z" transform="translate(-81.35 -75.82)"/><path class="cls-1" d="M367.29,170.16h0l3.7-3.78h3.82l-5.06,4.54,3.76,5.77h-3.87L367,172.3h0l-.7,4.39h-2.94l2.82-17.8h2.94Z" transform="translate(-81.35 -75.82)"/><path class="cls-1" d="M378.25,175.22a2.3,2.3,0,0,1-2.16,1.89,1.57,1.57,0,0,1-1.57-1.89,2.25,2.25,0,0,1,2.16-1.85A1.54,1.54,0,0,1,378.25,175.22Z" transform="translate(-81.35 -75.82)"/><path class="cls-1" d="M388.06,160.86h3c2.37,0,4.26.31,5.88,1.91a6.73,6.73,0,0,1,1.68,6,9.21,9.21,0,0,1-3.53,5.9,9.55,9.55,0,0,1-6.57,2h-2.94Zm.8,14.19a7.5,7.5,0,0,0,8-6.28,5.52,5.52,0,0,0-1.31-4.74c-1.26-1.28-2.81-1.53-4.68-1.53h-1.28l-2,12.55Z" transform="translate(-81.35 -75.82)"/><path class="cls-1" d="M402.28,167.89h0a3.12,3.12,0,0,1,2.41-1.34,2.59,2.59,0,0,1,1.43.46l-1.05,1.53a1.32,1.32,0,0,0-.92-.44c-1.85,0-2.31,2.38-2.52,3.66l-.78,4.93h-1.68l1.55-9.87h1.68Z" transform="translate(-81.35 -75.82)"/><path class="cls-1" d="M407.82,176.69h-1.68l1.55-9.87h1.68Zm2.5-13.58a1.46,1.46,0,0,1-1.39,1.19,1,1,0,0,1-1-1.19,1.49,1.49,0,0,1,1.4-1.2A1,1,0,0,1,410.32,163.11Z" transform="translate(-81.35 -75.82)"/><path class="cls-1" d="M414.6,173.46l4-6.64h1.89L414,177.34l-3.19-10.52h1.91Z" transform="translate(-81.35 -75.82)"/><path class="cls-1" d="M422,176.69h-1.68l1.55-9.87h1.68Zm2.5-13.58a1.46,1.46,0,0,1-1.39,1.19,1,1,0,0,1-1-1.19,1.51,1.51,0,0,1,1.41-1.2A1,1,0,0,1,424.54,163.11Z" transform="translate(-81.35 -75.82)"/><path class="cls-1" d="M428.08,168h.05a4,4,0,0,1,3.06-1.47c2.73,0,3.05,2,2.67,4.28l-.92,5.86h-1.68l.88-5.56c.25-1.6.35-3-1.6-3-2.31,0-2.79,2.15-3.08,3.91l-.74,4.68H425l1.55-9.87h1.68Z" transform="translate(-81.35 -75.82)"/><path class="cls-1" d="M444.61,176.21a7.24,7.24,0,0,1-1.68,4.24,5.63,5.63,0,0,1-4.09,1.74c-2.75,0-4.52-1.74-4.14-4.53h1.68a2.45,2.45,0,0,0,2.67,3c2.6,0,3.48-1.91,3.82-4.14l.19-1.17h0a5.19,5.19,0,0,1-3.68,1.63c-2.88,0-4.32-2.41-3.88-5.16s2.68-5.25,5.6-5.25a3.43,3.43,0,0,1,3.09,1.68h0l.21-1.41h1.68Zm-7.41-4.56c-.32,1.93.55,3.76,2.64,3.76a4.07,4.07,0,0,0,3.89-3.74c.31-2-.67-3.57-2.75-3.57A4.07,4.07,0,0,0,437.2,171.65Z" transform="translate(-81.35 -75.82)"/><path class="cls-1" d="M455.87,167.45h0a3.51,3.51,0,0,1,2.77-1.4,3,3,0,0,1,1.18.25l-.78,2.73a1.75,1.75,0,0,0-1.15-.38c-2,0-2.55,1.8-2.8,3.4l-.73,4.64h-2.94l1.64-10.31H456Z" transform="translate(-81.35 -75.82)"/><path class="cls-1" d="M462.27,172c-.19,1.3.07,2.77,1.6,2.77a2.63,2.63,0,0,0,2.2-1.41l2.65.44a5.79,5.79,0,0,1-5.21,3.22c-3.19,0-4.76-2.27-4.28-5.4s2.54-5.58,5.88-5.58,4.49,2.49,4,5.6l-.07.36Zm4.31-1.83c0-1.05-.49-2.08-1.62-2.08a2.61,2.61,0,0,0-2.31,2.08Z" transform="translate(-81.35 -75.82)"/><path class="cls-1" d="M476.22,168.82a1.94,1.94,0,0,0-1.43-.72,1.16,1.16,0,0,0-1.11.89c-.13.75.92,1,1.89,1.42a2.48,2.48,0,0,1,1.65,3,4.48,4.48,0,0,1-4.59,3.66,4,4,0,0,1-3.36-1.73l1.63-1.74a2.59,2.59,0,0,0,2,1.2,1.33,1.33,0,0,0,1.34-1.11c.15-.91-.86-1.12-1.8-1.56a2.3,2.3,0,0,1-1.64-2.71,3.85,3.85,0,0,1,3.8-3.33,4.63,4.63,0,0,1,3.15,1.07Z" transform="translate(-81.35 -75.82)"/><path class="cls-1" d="M482.81,166.38l-.88,5.59c-.19,1.17-.23,2.58,1.26,2.58s1.91-1.41,2.1-2.58l.88-5.59h2.94l-1,6.07c-.48,3-2.29,4.58-5.35,4.58s-4.37-1.58-3.88-4.58l1-6.07Z" transform="translate(-81.35 -75.82)"/><path class="cls-1" d="M492.47,176.69h-2.94l2.81-17.8h2.94Z" transform="translate(-81.35 -75.82)"/><path class="cls-1" d="M497.85,176.69h-2.94l1.24-7.83h-1l.4-2.48h1l.55-3.48H500l-.55,3.48h1.81l-.4,2.48h-1.81Z" transform="translate(-81.35 -75.82)"/><path class="cls-1" d="M506.83,168.82a1.92,1.92,0,0,0-1.42-.72,1.17,1.17,0,0,0-1.12.89c-.12.75.93,1,1.89,1.42a2.49,2.49,0,0,1,1.66,3,4.49,4.49,0,0,1-4.6,3.66,4,4,0,0,1-3.36-1.73l1.64-1.74a2.57,2.57,0,0,0,2,1.2,1.33,1.33,0,0,0,1.34-1.11c.15-.91-.86-1.12-1.81-1.56a2.3,2.3,0,0,1-1.63-2.71,3.85,3.85,0,0,1,3.8-3.33,4.65,4.65,0,0,1,3.15,1.07Z" transform="translate(-81.35 -75.82)"/><path class="cls-1" d="M512.34,175.22a2.31,2.31,0,0,1-2.17,1.89,1.57,1.57,0,0,1-1.57-1.89,2.26,2.26,0,0,1,2.16-1.85A1.55,1.55,0,0,1,512.34,175.22Z" transform="translate(-81.35 -75.82)"/><path class="cls-2" d="M434.27,93.57a25.16,25.16,0,0,0-10.15,2l8.13,6.14a14.89,14.89,0,0,1,2-.15c8.48,0,14.88,6.62,14.88,15.39s-6.4,15.38-14.88,15.38a14.88,14.88,0,0,1-14.79-13l-8.59-6.49a24.21,24.21,0,0,0-.36,4.06c0,11.47,8.32,23.57,23.74,23.57S458,128.35,458,117,449.69,93.57,434.27,93.57Z" transform="translate(-81.35 -75.82)"/><path class="cls-2" d="M406.87,140.45a25.16,25.16,0,0,0,10.15-2l-8.13-6.14a14.89,14.89,0,0,1-2,.15c-8.48,0-14.88-6.62-14.88-15.39s6.4-15.38,14.88-15.38a14.88,14.88,0,0,1,14.79,13l8.59,6.49a23.21,23.21,0,0,0,.36-4.06c0-11.47-8.32-23.57-23.74-23.57s-23.74,12.1-23.74,23.48S391.45,140.45,406.87,140.45Z" transform="translate(-81.35 -75.82)"/><polygon class="cls-1" points="9.15 0 0 0 0 63.36 0.84 63.36 0.84 63.36 26.76 63.36 26.76 54.37 9.15 54.37 9.15 0"/><path class="cls-1" d="M131.59,94.57c-12.93,0-23.49,9.24-23.49,22.79s10.56,22.88,23.49,22.88,23.32-9.33,23.32-22.88S144.44,94.57,131.59,94.57Zm0,37.75a15,15,0,1,1,14.43-15A14.48,14.48,0,0,1,131.59,132.32Z" transform="translate(-81.35 -75.82)"/><polygon class="cls-1" points="109.29 19.62 95.3 51.13 81.66 19.62 71.45 19.62 90.29 62.3 83.16 78.32 93.37 78.32 119.5 19.62 109.29 19.62"/><path class="cls-1" d="M236.75,100.55c-3.78-4-9.24-6.25-15.84-6.25-11.44,0-21.64,9.33-21.64,23.06s10.2,23.06,21.64,23.06c6.6,0,12.06-2.29,15.84-6.25v5h9.15V95.54h-9.15Zm-14.34,31.77c-8,0-14.26-5.72-14.26-15s6.25-15,14.26-15a15,15,0,0,1,0,29.92Z" transform="translate(-81.35 -75.82)"/><rect class="cls-1" x="171.86" width="9.15" height="63.36"/><path class="cls-1" d="M293.33,131.79c-4.31,0-7.21-2.64-7.21-8.09V103.1h15V95.54h-15V82H277V95.54h-9.42v7.56H277v21.21c0,10.82,6.33,16.11,15.75,16.11,3.69,0,6.69-.89,10.82-3.35l-2.81-7.65A14.42,14.42,0,0,1,293.33,131.79Z" transform="translate(-81.35 -75.82)"/><polygon class="cls-1" points="247.28 51.13 233.64 19.62 223.43 19.62 242.26 62.3 235.13 78.32 245.34 78.32 271.48 19.62 261.27 19.62 247.28 51.13"/><polygon class="cls-1" points="284.76 0 275.61 0 275.61 63.36 276.17 63.36 276.17 63.36 302.09 63.36 302.09 54.37 284.76 54.37 284.76 0"/><path class="cls-1" d="M486.49,94.3c-6.6,0-12.05,2.29-15.84,6.25v-5H461.5v58.6h9.15v-20c3.79,4,9.24,6.25,15.84,6.25,11.44,0,21.65-9.25,21.65-23.06S497.93,94.3,486.49,94.3Zm-1.49,38a15,15,0,0,1,0-29.92c8,0,14.25,5.81,14.25,15S493,132.32,485,132.32Z" transform="translate(-81.35 -75.82)"/><path class="cls-1" d="M514.91,86.91a8.19,8.19,0,1,0,8.17,8.21A8,8,0,0,0,514.91,86.91Zm0,14.78a6.62,6.62,0,1,1,6.53-6.57A6.48,6.48,0,0,1,514.91,101.69Z" transform="translate(-81.35 -75.82)"/><path class="cls-1" d="M518.46,93.61c0-1.51-1.22-2.49-3.06-2.49h-3.47v7.51h1.64V96.22h1.22l2.12,2.41h2l-2.33-2.57A2.52,2.52,0,0,0,518.46,93.61Zm-3.06,1.14h-1.83V92.59h1.83c.86,0,1.43.41,1.43,1.06S516.26,94.75,515.4,94.75Z" transform="translate(-81.35 -75.82)"/></svg>