<?xml version="1.0" encoding="UTF-8"?>
<svg width="227px" height="64px" viewBox="0 0 227 64" version="1.1" xmlns="http://www.w3.org/2000/svg" xmlns:xlink="http://www.w3.org/1999/xlink">
    <title>Group 2</title>
    <g id="SETTINGS-(DESKTOP)" stroke="none" stroke-width="1" fill="none" fill-rule="evenodd">
        <g id="SETTINGS.-COMPANY-DETAILS" transform="translate(-155.000000, -158.000000)" fill-rule="nonzero">
            <g id="Group-2" transform="translate(155.458285, 158.000000)">
                <g id="LL-LOGO">
                    <path d="M10.4921089,34.258647 L10.4921089,37.6922993 L9.43015453,37.6922993 C7.04721099,37.7345542 4.74461915,36.8308282 3.02656987,35.1790074 C1.25681511,33.5012072 0.284934196,31.1493841 0.35398478,28.7117055 L0.35398478,0 L3.97878892,0 L3.97878892,28.7117055 C3.92438322,30.2012725 4.49858013,31.6451144 5.56110089,32.6904944 C6.5787864,33.7252405 7.97921908,34.2928449 9.43015453,34.258647 L10.4921089,34.258647 Z" id="Path" fill="#3D3D4F"></path>
                    <path d="M29.9364928,17.1116242 C27.6735747,14.7871551 24.5536108,13.4966654 21.3098837,13.5434577 C18.0623988,13.5004711 14.9388263,14.7885291 12.6655754,17.1080844 C10.3507035,19.3122544 9.05031481,22.3755346 9.0726299,25.5718605 C9.06032044,28.7783884 10.3356129,31.8556692 12.6124777,34.1135132 C14.8006119,36.479962 17.8851748,37.8140355 21.1081124,37.7878752 L21.5222746,37.7878752 C24.7444616,37.8283704 27.8324031,36.4992689 30.0179093,34.1312125 C32.2720794,31.863913 33.5273085,28.7901946 33.5046594,25.5930996 C33.5311535,22.3957636 32.2407198,19.3284232 29.9364928,17.1116242 Z M27.3701032,31.7878332 C25.8186231,33.4571698 23.6310282,34.3888279 21.3523619,34.350683 C19.0520511,34.3815367 16.8434732,33.4498531 15.2602839,31.7807535 C13.5947998,30.2050619 12.6620833,28.0060576 12.6868145,25.7134544 C12.6677172,23.4047341 13.5997256,21.1899338 15.2638237,19.5895177 C16.8314228,17.9074118 19.0355088,16.9640887 21.3346627,16.9912694 C23.6166898,16.9581302 25.8049691,17.897803 27.3524039,19.5753583 C30.7222015,22.9489695 30.7332747,28.4112067 27.3771829,31.7984528 L27.3701032,31.7878332 Z" id="Shape" fill="#3D3D4F"></path>
                    <path d="M56.421634,14.0567356 L56.421634,35.5542313 C56.4407887,38.4971983 55.2770038,41.3245187 53.1916458,43.4012238 C51.1062878,45.4779288 48.2741528,46.6299477 45.3312909,46.5985564 C41.6215304,46.5985564 38.6409785,45.1472188 36.4816714,42.2905616 L36.2480414,41.9861347 L36.5029105,35.6144087 L38.3365516,38.7577935 C39.0887935,40.0673031 40.1496634,41.1731354 41.4268388,41.979055 C44.3353978,43.8672117 48.1727796,43.4373775 50.5915047,40.9524992 C52.0374081,39.5860636 52.8416728,37.6743289 52.8074494,35.6852056 L52.8074494,35.3312209 C51.0764639,36.9489313 48.7507839,37.7666361 45.8551884,37.7666361 C43.0744972,37.8043007 40.3996771,36.701625 38.4533666,34.7152873 C36.457677,32.8073021 35.3393031,30.1593311 35.3630795,27.3984219 L35.3630795,14.0567356 L38.9878836,14.0567356 L38.9878836,27.3984219 C38.9740166,29.2414894 39.725134,31.0077691 41.0622344,32.2763322 C42.3260899,33.6012063 44.0772694,34.3508633 45.9082861,34.3508633 C47.7393027,34.3508633 49.4904823,33.6012063 50.7543377,32.2763322 C52.0865789,31.0055714 52.8325033,29.2394479 52.8145291,27.3984219 L52.8145291,14.0567356 L56.421634,14.0567356 Z" id="Path" fill="#3D3D4F"></path>
                    <path d="M78.9952434,14.0567356 L78.9952434,16.9664905 C78.3297461,16.3116108 77.5825764,15.7452847 76.772219,15.2815229 C74.8731354,14.1515865 72.705868,13.5514013 70.4960689,13.5434577 C67.2554497,13.5038084 64.1397162,14.7917984 61.8729996,17.1080844 C59.5744529,19.3622284 58.279344,22.4462749 58.279344,25.6656664 C58.279344,28.885058 59.5744529,31.9691045 61.8729996,34.2232485 C64.1394797,36.5398846 67.25537,37.8279394 70.4960689,37.7878752 C72.6645256,37.7943527 74.7942387,37.2132994 76.6589439,36.1064475 C77.5139002,35.6060956 78.2993922,34.9955541 78.9952434,34.2905056 L78.9952434,37.281677 L82.6200476,37.281677 L82.6200476,14.0567356 L78.9952434,14.0567356 Z M76.5775274,31.7878332 C75.0265741,33.4579198 72.8386281,34.3897274 70.5597861,34.350683 C68.2597291,34.380238 66.0516505,33.4487649 64.4677081,31.7807535 C62.803167,30.2046975 61.8716974,28.0056082 61.8977786,25.7134544 C61.8769994,23.4044022 62.8092765,21.1889633 64.4747878,19.5895177 C66.041295,17.9079605 68.2440724,16.9646474 70.5420869,16.9912694 C72.8237572,16.9599299 75.0113341,17.8993011 76.5598281,19.5753583 C79.9305819,22.9491406 79.9400759,28.4129767 76.5810672,31.7984528 L76.5775274,31.7878332 Z" id="Shape" fill="#3D3D4F"></path>
                    <path d="M96.2555413,34.258647 L96.2555413,37.6922993 L95.1935869,37.6922993 C92.8109393,37.7349987 90.5088662,36.8297034 88.7935421,35.1754676 C87.0222785,33.4999065 86.0489387,31.1489561 86.1174172,28.7117055 L86.1174172,0 L89.7422213,0 L89.7422213,28.7117055 C89.688741,30.2018044 90.2642538,31.6457249 91.3280731,32.6904944 C92.3457587,33.7252405 93.7461913,34.2928449 95.1971268,34.258647 L96.2555413,34.258647 Z" id="Path" fill="#3D3D4F"></path>
                    <path d="M142.829319,34.258647 L142.829319,37.6922993 L141.767364,37.6922993 C139.384717,37.7349987 137.082644,36.8297034 135.36732,35.1754676 C133.596056,33.4999065 132.622716,31.1489561 132.691195,28.7117055 L132.691195,0 L136.315999,0 L136.315999,28.7117055 C136.271467,30.179406 136.828315,31.6016211 137.857552,32.648903 C138.886789,33.6961849 140.299112,34.277665 141.767364,34.258647 L142.829319,34.258647 Z" id="Path" fill="#3D3D4F"></path>
                    <path d="M107.551196,34.1170531 L107.551196,37.5542453 L106.489241,37.5542453 C104.10673,37.5978362 101.804063,36.6953539 100.085657,35.0444932 C98.3153172,33.3685673 97.3432257,31.0175222 97.4130715,28.5807311 L97.4130715,5.57172043 L101.037876,5.57172043 L101.037876,14.1027536 L107.505178,14.1027536 L107.505178,17.536406 L101.037876,17.536406 L101.037876,28.5701116 C100.978432,30.0657526 101.553023,31.5170116 102.620188,32.5665997 C103.637633,33.6017056 105.038228,34.169376 106.489241,34.1347523 L107.551196,34.1170531 Z" id="Path" fill="#3D3D4F"></path>
                    <path d="M129.76728,14.0567356 L129.76728,35.5542313 C129.786449,38.4978188 128.622181,41.3256875 126.536052,43.4024976 C124.449922,45.4793077 121.61687,46.630904 118.673397,46.5985564 C114.967177,46.5985564 111.986625,45.1472188 109.823778,42.2905616 L109.593688,41.9861347 L109.848557,35.6144087 L111.682198,38.7577935 C112.43444,40.0673031 113.49531,41.1731354 114.772485,41.979055 C117.681044,43.8672117 121.518426,43.4373775 123.937151,40.9524992 C125.383054,39.5860636 126.187319,37.6743289 126.153096,35.6852056 L126.153096,35.3312209 C124.42211,36.9489313 122.09643,37.7666361 119.200835,37.7666361 C116.420144,37.8043007 113.745323,36.701625 111.799013,34.7152873 C109.800388,32.8013901 108.685211,30.1441916 108.719345,27.3771829 L108.719345,14.0567356 L112.34061,14.0567356 L112.34061,27.3984219 C112.323486,29.2392798 113.069274,31.0050786 114.400801,32.2763322 C115.664657,33.6012063 117.415836,34.3508633 119.246853,34.3508633 C121.077869,34.3508633 122.829049,33.6012063 124.092904,32.2763322 C125.425146,31.0055714 126.17107,29.2394479 126.153096,27.3984219 L126.153096,14.0567356 L129.76728,14.0567356 Z" id="Path" fill="#3D3D4F"></path>
                    <path d="M222.376471,17.628442 C220.103741,15.296499 216.970308,14.0044539 213.714463,14.0567356 C211.558742,14.068893 209.444651,14.6514587 207.586987,15.745243 C206.724763,16.2309098 205.928806,16.8257954 205.218828,17.5151669 L205.218828,14.5735534 L201.608184,14.5735534 L201.608184,47.1613922 L205.218828,47.1613922 L205.218828,34.7719249 C207.502548,36.9816653 210.537353,38.2461674 213.714463,38.3117727 C220.435352,38.337259 225.907586,32.9157087 225.944637,26.1948737 C225.984905,22.9700152 224.694139,19.8711523 222.376471,17.628442 L222.376471,17.628442 Z M219.813621,32.304651 C218.262141,33.9739876 216.074546,34.9056456 213.79588,34.8675008 C211.493625,34.89774 209.283096,33.9663159 207.696722,32.2975713 C206.033078,30.7194225 205.101878,28.5196873 205.126792,26.2267323 C205.106569,23.9188233 206.038835,21.7046912 207.703801,20.1063355 C209.267495,18.4212024 211.468786,17.4728357 213.767561,17.4939278 C216.049866,17.4630477 218.237703,18.4038176 219.785302,20.0815565 C223.1551,23.4551677 223.166173,28.9174049 219.810081,32.304651 L219.813621,32.304651 Z" id="Shape" fill="#3D3D4F"></path>
                    <path d="M195.049,16.8319763 C190.27409,12.0697847 182.545912,12.0697847 177.771002,16.8319763 L174.135579,20.4674 L176.638251,22.9700724 L180.273675,19.3346487 C183.662839,15.9489304 189.154679,15.9507926 192.541547,19.3388085 C195.928414,22.7268243 195.928414,28.2186652 192.541547,31.606681 C189.154679,34.9946969 183.662839,34.996559 180.273675,31.6108408 L165.49481,16.8319763 C160.724012,12.0669714 152.994199,12.0701021 148.227262,16.8389699 C143.460325,21.6078376 143.460325,29.3376519 148.227262,34.1065196 C152.994199,38.8753874 160.724012,38.878518 165.49481,34.1135132 L169.130234,30.4816294 L166.627562,27.9647976 L162.992138,31.6108408 C159.60349,34.9979979 154.110739,34.9971922 150.723085,31.6090412 C147.335431,28.2208902 147.335431,22.7281391 150.723085,19.3399881 C154.110739,15.9518371 159.60349,15.9510315 162.992138,19.3381885 L177.771002,34.1135132 C180.845177,37.2631816 185.37564,38.5162994 189.631411,37.3940803 C193.887181,36.2718611 197.210649,32.9477124 198.331996,28.6917121 C199.453343,24.4357118 198.199298,19.9055053 195.049,16.8319763 L195.049,16.8319763 Z" id="Path" fill="#1ED500"></path>
                </g>
                <path d="M70.7291909,61.4661634 C71.4994772,61.4661634 72.1862385,61.2527106 72.761633,60.8629271 L72.2419218,60.1019214 C71.8428578,60.4081798 71.3417077,60.5845104 70.7663132,60.5845104 C69.5876824,60.5845104 68.7431516,59.6100519 68.7431516,58.496385 C68.7431516,56.9743736 69.7547324,55.6286927 71.3324272,55.6286927 C71.8985412,55.6286927 72.3718496,55.8514261 72.7523525,56.2040873 L73.3463081,55.4430816 C72.7894747,54.9976148 72.111994,54.7470398 71.3509883,54.7470398 C69.2071795,54.7470398 67.6851681,56.5103457 67.6851681,58.5242267 C67.6851681,60.194727 69.04941,61.4661634 70.7291909,61.4661634 Z M75.1188946,61.4661634 C75.6293253,61.4661634 76.074792,61.3083939 76.4460143,60.9650133 L76.390331,61.3547967 L77.2812645,61.3547967 L77.7824146,58.5149461 C77.8102563,58.3571766 77.8288174,58.1994072 77.8288174,58.0601988 C77.8288174,57.0764597 77.2070201,56.5474679 76.074792,56.5474679 C75.4158725,56.5474679 74.691989,56.7423596 74.1537166,57.0300569 L74.3950111,57.763221 C74.8776001,57.5126459 75.3973113,57.3455959 75.8984614,57.3455959 C76.390331,57.3455959 76.87292,57.5683292 76.87292,58.097321 C76.87292,58.1901266 76.8636394,58.2829322 76.8450783,58.3757377 L76.8079561,58.5891906 C76.4645755,58.5056655 76.1304754,58.4685433 75.8427781,58.4685433 C74.8219168,58.4685433 73.6061637,58.9140101 73.6061637,60.1019214 C73.6061637,61.0114161 74.3300472,61.4661634 75.1188946,61.4661634 Z M75.3509086,60.7051577 C74.9518446,60.7051577 74.5527806,60.4824243 74.5527806,60.0183964 C74.5527806,59.3409157 75.3137863,59.146024 75.824217,59.146024 C76.0933532,59.146024 76.390331,59.1738657 76.6873088,59.2573907 L76.5109782,60.2504104 C76.1675976,60.510266 75.7870948,60.7051577 75.3509086,60.7051577 Z M79.2580233,63.6749361 L79.7777345,60.760841 C80.0932734,61.1691855 80.6129846,61.4661634 81.2626237,61.4661634 C82.8124768,61.4661634 83.8704603,60.1019214 83.8704603,58.663435 C83.8704603,57.3734375 82.8960018,56.5474679 81.8380182,56.5474679 C81.3368681,56.5474679 80.7707541,56.7516402 80.3902513,57.1599847 L80.4644957,56.6588346 L79.53644,56.6588346 L78.2928453,63.6749361 L79.2580233,63.6749361 Z M81.2440626,60.6030715 C80.6872291,60.6030715 80.2417623,60.278252 79.9540651,59.7585408 L80.2510429,58.0694793 C80.5944235,57.6332931 81.1698181,57.4105598 81.5781626,57.4105598 C82.450535,57.4105598 82.8960018,58.0230766 82.8960018,58.8026434 C82.8960018,59.7306991 82.2278016,60.6030715 81.2440626,60.6030715 Z M86.0885136,61.4476023 C86.4040525,61.4476023 86.812397,61.3640773 87.044411,61.2248689 L86.8495193,60.4731437 C86.6731887,60.5752299 86.478297,60.6123521 86.3390886,60.6123521 C86.0142691,60.6123521 85.8379385,60.4267409 85.8379385,60.1204826 C85.8379385,59.9627131 85.8564996,59.8049436 85.8936219,59.5914908 L86.2741247,57.4848042 L87.5362805,57.4848042 L87.6754889,56.6588346 L86.4133331,56.6588346 L86.6082248,55.5544483 L85.6894496,55.5544483 L85.4481551,56.6588346 L84.8263577,56.6588346 L84.6778688,57.4848042 L85.2996662,57.4848042 L84.9098828,59.6657352 C84.8727605,59.8791881 84.8449189,60.0647992 84.8449189,60.2689715 C84.8449189,60.9464522 85.3553495,61.4476023 86.0885136,61.4476023 Z M89.6336865,61.4661634 C90.3111672,61.4661634 90.8123173,61.1506244 91.2299424,60.6587549 L91.1185757,61.3547967 L92.0466315,61.3547967 L92.8818816,56.6588346 L91.9167037,56.6588346 L91.3598702,59.8049436 C90.9886479,60.2504104 90.4782173,60.6030715 89.9213838,60.6030715 C89.3831115,60.6030715 89.1232559,60.3153743 89.1232559,59.7678214 C89.1232559,59.545088 89.1696586,59.313074 89.2067809,59.0996212 L89.6429671,56.6588346 L88.6685085,56.6588346 L88.2416029,59.0903407 C88.1952001,59.3501963 88.1673584,59.6378936 88.1673584,59.9070297 C88.1673584,60.8722077 88.6963502,61.4661634 89.6336865,61.4661634 Z M94.5152598,61.3547967 L95.0813738,58.1622849 C95.3505099,57.7168182 95.7124517,57.4755237 96.2043212,57.4755237 C96.3806518,57.4755237 96.5198602,57.5126459 96.649788,57.6054515 L97.0024492,56.6309929 C96.8261186,56.5753096 96.6869102,56.5474679 96.4641768,56.5474679 C95.9166239,56.5474679 95.4989989,56.8722874 95.2113016,57.3270347 L95.3133877,56.6588346 L94.385332,56.6588346 L93.5500818,61.3547967 L94.5152598,61.3547967 Z M98.9513662,55.8050233 L99.1276968,54.8120037 L98.1625188,54.8120037 L97.9861883,55.8050233 L98.9513662,55.8050233 Z M97.9676271,61.3547967 L98.8028773,56.6588346 L97.8376993,56.6588346 L97.0024492,61.3547967 L97.9676271,61.3547967 Z M100.426975,61.3547967 L100.983808,58.2086877 C101.355031,57.763221 101.865461,57.4105598 102.422295,57.4105598 C102.960567,57.4105598 103.220423,57.698257 103.220423,58.2458099 C103.220423,58.4685433 103.17402,58.7005573 103.136898,58.9140101 L102.700711,61.3547967 L103.67517,61.3547967 L104.102076,58.9232906 C104.148478,58.663435 104.17632,58.3757377 104.17632,58.1066016 C104.17632,57.1414236 103.647328,56.5474679 102.709992,56.5474679 C102.032511,56.5474679 101.531361,56.8630069 101.113736,57.3548764 L101.225103,56.6588346 L100.297047,56.6588346 L99.4617969,61.3547967 L100.426975,61.3547967 Z M107.062573,63.4429221 C107.591565,63.4429221 108.046313,63.340836 108.398974,63.1366637 C108.983649,62.8025637 109.317749,62.1900469 109.484799,61.2805522 L110.301488,56.6588346 L109.373432,56.6588346 L109.252785,57.2620708 C108.937246,56.8444458 108.398974,56.5474679 107.749335,56.5474679 C106.199482,56.5474679 105.132218,57.8653071 105.132218,59.3037935 C105.132218,60.5845104 106.106676,61.3547967 107.16466,61.3547967 C107.66581,61.3547967 108.222643,61.1506244 108.612427,60.7515605 L108.491779,61.41048 C108.408254,61.893069 108.231924,62.2271691 107.944226,62.4034997 C107.749335,62.5241469 107.50804,62.5798303 107.183221,62.5798303 C106.450057,62.5798303 105.809698,62.3199747 105.243584,61.8837885 L104.751715,62.6633553 C105.447756,63.1459443 106.199482,63.4429221 107.062573,63.4429221 Z M107.424515,60.4917049 C106.552143,60.4917049 106.106676,59.9348714 106.106676,59.1645851 C106.106676,58.2365294 106.774876,57.4105598 107.749335,57.4105598 C108.324729,57.4105598 108.770196,57.7260987 109.048613,58.2458099 L108.779477,59.8142242 C108.408254,60.2596909 107.83286,60.4917049 107.424515,60.4917049 Z M114.338531,61.3547967 L114.82112,58.6170322 L117.187662,58.6170322 L117.345431,57.7446598 L114.969608,57.7446598 L115.32227,55.7307789 L117.688812,55.7307789 L117.846581,54.8584065 L114.459178,54.8584065 L113.317669,61.3547967 L114.338531,61.3547967 Z M120.027512,61.4661634 C120.881324,61.4661634 121.568085,61.1320633 122.15276,60.4360215 L121.48456,59.9070297 C121.15046,60.3710576 120.630749,60.6587549 120.073915,60.6587549 C119.312909,60.6587549 118.867443,60.027677 118.858162,59.2481101 L122.384774,59.2481101 C122.459018,59.0439379 122.505421,58.7283989 122.505421,58.5056655 C122.505421,57.3455959 121.725854,56.5474679 120.435857,56.5474679 C118.960248,56.5474679 117.883704,57.9024293 117.883704,59.3409157 C117.883704,60.6309132 118.83032,61.4661634 120.027512,61.4661634 Z M121.512401,58.5149461 L118.98809,58.5149461 C119.210823,57.8653071 119.721254,57.3455959 120.435857,57.3455959 C121.122618,57.3455959 121.521682,57.8745876 121.521682,58.3942989 C121.521682,58.4314211 121.521682,58.4871044 121.512401,58.5149461 Z M125.354552,61.4661634 C126.208364,61.4661634 126.895125,61.1320633 127.4798,60.4360215 L126.8116,59.9070297 C126.4775,60.3710576 125.957789,60.6587549 125.400955,60.6587549 C124.639949,60.6587549 124.194483,60.027677 124.185202,59.2481101 L127.711814,59.2481101 C127.786058,59.0439379 127.832461,58.7283989 127.832461,58.5056655 C127.832461,57.3455959 127.052894,56.5474679 125.762897,56.5474679 C124.287288,56.5474679 123.210743,57.9024293 123.210743,59.3409157 C123.210743,60.6309132 124.15736,61.4661634 125.354552,61.4661634 Z M126.839441,58.5149461 L124.31513,58.5149461 C124.537863,57.8653071 125.048294,57.3455959 125.762897,57.3455959 C126.449658,57.3455959 126.848722,57.8745876 126.848722,58.3942989 C126.848722,58.4314211 126.848722,58.4871044 126.839441,58.5149461 Z M130.570226,61.4661634 C131.071376,61.4661634 131.63749,61.2527106 132.017993,60.8536466 L131.943748,61.3547967 L132.871804,61.3547967 L134.106118,54.3943786 L133.14094,54.3943786 L132.630509,57.2435097 C132.31497,56.8351652 131.795259,56.5474679 131.14562,56.5474679 C129.595767,56.5474679 128.537783,57.9117099 128.537783,59.3501963 C128.537783,60.6401938 129.512242,61.4661634 130.570226,61.4661634 Z M130.830081,60.6030715 C129.957709,60.6030715 129.512242,59.9905547 129.512242,59.2109879 C129.512242,58.2829322 130.180442,57.4105598 131.164181,57.4105598 C131.721015,57.4105598 132.166481,57.7353793 132.454179,58.2550905 L132.157201,59.944152 C131.81382,60.3803382 131.238426,60.6030715 130.830081,60.6030715 Z M136.918127,61.4661634 C138.477261,61.4661634 139.535244,60.1019214 139.535244,58.663435 C139.535244,57.3734375 138.560786,56.5474679 137.502802,56.5474679 C137.001652,56.5474679 136.454099,56.7609207 136.073596,57.1414236 L136.565466,54.3943786 L135.600288,54.3943786 L134.365974,61.3547967 L135.294029,61.3547967 L135.414677,60.7422799 C135.720935,61.159905 136.268488,61.4661634 136.918127,61.4661634 Z M136.908846,60.6030715 C136.352013,60.6030715 135.897266,60.278252 135.609568,59.7678214 L135.915827,58.0509182 C136.259207,57.6240126 136.834602,57.4105598 137.242946,57.4105598 C138.115319,57.4105598 138.560786,58.0230766 138.560786,58.8026434 C138.560786,59.7306991 137.892585,60.6030715 136.908846,60.6030715 Z M141.725456,61.4661634 C142.235886,61.4661634 142.681353,61.3083939 143.052575,60.9650133 L142.996892,61.3547967 L143.887826,61.3547967 L144.388976,58.5149461 C144.416817,58.3571766 144.435378,58.1994072 144.435378,58.0601988 C144.435378,57.0764597 143.813581,56.5474679 142.681353,56.5474679 C142.022434,56.5474679 141.29855,56.7423596 140.760278,57.0300569 L141.001572,57.763221 C141.484161,57.5126459 142.003872,57.3455959 142.505023,57.3455959 C142.996892,57.3455959 143.479481,57.5683292 143.479481,58.097321 C143.479481,58.1901266 143.4702,58.2829322 143.451639,58.3757377 L143.414517,58.5891906 C143.071137,58.5056655 142.737036,58.4685433 142.449339,58.4685433 C141.428478,58.4685433 140.212725,58.9140101 140.212725,60.1019214 C140.212725,61.0114161 140.936608,61.4661634 141.725456,61.4661634 Z M141.95747,60.7051577 C141.558406,60.7051577 141.159342,60.4824243 141.159342,60.0183964 C141.159342,59.3409157 141.920347,59.146024 142.430778,59.146024 C142.699914,59.146024 142.996892,59.1738657 143.29387,59.2573907 L143.117539,60.2504104 C142.774159,60.510266 142.393656,60.7051577 141.95747,60.7051577 Z M147.572207,61.4661634 C148.12904,61.4661634 148.611629,61.2898328 149.038535,60.9742938 L148.500263,60.2875326 C148.240407,60.4824243 147.943429,60.6030715 147.590768,60.6030715 C146.839043,60.6030715 146.310051,59.9998353 146.310051,59.2666713 C146.310051,58.2922127 146.95041,57.4105598 147.915588,57.4105598 C148.305371,57.4105598 148.648752,57.5683292 148.890046,57.8374654 L149.484002,57.1135819 C149.066377,56.7330791 148.537385,56.5474679 147.943429,56.5474679 C146.467821,56.5474679 145.335593,57.8653071 145.335593,59.3223546 C145.335593,60.6030715 146.310051,61.4661634 147.572207,61.4661634 Z M150.820402,61.3547967 L151.024574,60.194727 L151.924788,59.3223546 L152.843564,61.3547967 L153.929389,61.3547967 L152.648672,58.6170322 L154.653272,56.6588346 L153.400397,56.6588346 L151.28443,58.8304851 L151.265869,58.8304851 L152.054716,54.3943786 L151.089538,54.3943786 L149.855224,61.3547967 L150.820402,61.3547967 Z M155.627731,61.3547967 L155.831903,60.2040076 L154.746078,60.2040076 L154.532625,61.3547967 L155.627731,61.3547967 Z M161.335274,61.3547967 C162.671674,61.3547967 163.571888,61.0299772 164.258649,60.3988993 C164.94541,59.7678214 165.335194,58.8490462 165.335194,57.7446598 C165.335194,56.8258846 165.056777,56.1020012 164.518505,55.6101316 C163.989513,55.1182621 163.209946,54.8584065 162.216927,54.8584065 L160.555707,54.8584065 L159.414198,61.3547967 L161.335274,61.3547967 Z M161.511604,60.4824243 L160.583548,60.4824243 L161.418799,55.7307789 L162.179804,55.7307789 C162.810882,55.7307789 163.330593,55.91639 163.701816,56.2597706 C164.063758,56.6031513 164.27721,57.1135819 164.27721,57.7539404 C164.27721,58.5706295 164.026635,59.2573907 163.553327,59.7399797 C163.089299,60.2132881 162.402538,60.4824243 161.511604,60.4824243 Z M167.014975,61.3547967 L167.581089,58.1622849 C167.850225,57.7168182 168.212167,57.4755237 168.704036,57.4755237 C168.880367,57.4755237 169.019575,57.5126459 169.149503,57.6054515 L169.502164,56.6309929 C169.325834,56.5753096 169.186625,56.5474679 168.963892,56.5474679 C168.416339,56.5474679 167.998714,56.8722874 167.711017,57.3270347 L167.813103,56.6588346 L166.885047,56.6588346 L166.049797,61.3547967 L167.014975,61.3547967 Z M171.451081,55.8050233 L171.627412,54.8120037 L170.662234,54.8120037 L170.485903,55.8050233 L171.451081,55.8050233 Z M170.467342,61.3547967 L171.302592,56.6588346 L170.337414,56.6588346 L169.502164,61.3547967 L170.467342,61.3547967 Z M173.817623,61.3547967 L176.471863,56.6588346 L175.367477,56.6588346 L173.59489,60.0555186 L173.576329,60.0555186 L173.010215,56.6588346 L171.980073,56.6588346 L172.945251,61.3547967 L173.817623,61.3547967 Z M178.402219,55.8050233 L178.578549,54.8120037 L177.613371,54.8120037 L177.437041,55.8050233 L178.402219,55.8050233 Z M177.41848,61.3547967 L178.25373,56.6588346 L177.288552,56.6588346 L176.453302,61.3547967 L177.41848,61.3547967 Z M179.877827,61.3547967 L180.434661,58.2086877 C180.805883,57.763221 181.316314,57.4105598 181.873147,57.4105598 C182.41142,57.4105598 182.671275,57.698257 182.671275,58.2458099 C182.671275,58.4685433 182.624873,58.7005573 182.58775,58.9140101 L182.151564,61.3547967 L183.126023,61.3547967 L183.552928,58.9232906 C183.599331,58.663435 183.627173,58.3757377 183.627173,58.1066016 C183.627173,57.1414236 183.098181,56.5474679 182.160845,56.5474679 C181.483364,56.5474679 180.982214,56.8630069 180.564589,57.3548764 L180.675955,56.6588346 L179.7479,56.6588346 L178.91265,61.3547967 L179.877827,61.3547967 Z M186.513426,63.4429221 C187.042418,63.4429221 187.497165,63.340836 187.849826,63.1366637 C188.434501,62.8025637 188.768602,62.1900469 188.935652,61.2805522 L189.752341,56.6588346 L188.824285,56.6588346 L188.703638,57.2620708 C188.388099,56.8444458 187.849826,56.5474679 187.200187,56.5474679 C185.650334,56.5474679 184.58307,57.8653071 184.58307,59.3037935 C184.58307,60.5845104 185.557529,61.3547967 186.615512,61.3547967 C187.116662,61.3547967 187.673496,61.1506244 188.063279,60.7515605 L187.942632,61.41048 C187.859107,61.893069 187.682776,62.2271691 187.395079,62.4034997 C187.200187,62.5241469 186.958893,62.5798303 186.634073,62.5798303 C185.900909,62.5798303 185.260551,62.3199747 184.694437,61.8837885 L184.202567,62.6633553 C184.898609,63.1459443 185.650334,63.4429221 186.513426,63.4429221 Z M186.875368,60.4917049 C186.002995,60.4917049 185.557529,59.9348714 185.557529,59.1645851 C185.557529,58.2365294 186.225729,57.4105598 187.200187,57.4105598 C187.775582,57.4105598 188.221049,57.7260987 188.499465,58.2458099 L188.230329,59.8142242 C187.859107,60.2596909 187.283712,60.4917049 186.875368,60.4917049 Z M193.789383,61.3547967 L194.262692,58.6448739 L194.847367,58.6448739 L196.313695,61.3547967 L197.445923,61.3547967 L195.933192,58.57991 C196.508587,58.4407016 196.981895,58.2272488 197.306714,57.9024293 C197.640815,57.5776098 197.826426,57.132143 197.826426,56.5196262 C197.826426,55.7864622 197.483045,55.350276 196.963334,55.1089815 C196.582831,54.9326509 196.090961,54.8584065 195.441322,54.8584065 L193.91003,54.8584065 L192.768522,61.3547967 L193.789383,61.3547967 Z M194.977295,57.7725015 L194.411181,57.7725015 L194.773122,55.7307789 L195.320675,55.7307789 C195.858947,55.7307789 196.202328,55.7771816 196.443623,55.9349511 C196.647795,56.0741595 196.768442,56.2876123 196.768442,56.6217124 C196.768442,57.1228625 196.508587,57.4105598 196.137364,57.5776098 C195.821825,57.7260987 195.432042,57.7725015 194.977295,57.7725015 Z M200.55491,61.4661634 C201.408721,61.4661634 202.095482,61.1320633 202.680157,60.4360215 L202.011957,59.9070297 C201.677857,60.3710576 201.158146,60.6587549 200.601312,60.6587549 C199.840307,60.6587549 199.39484,60.027677 199.385559,59.2481101 L202.912171,59.2481101 C202.986416,59.0439379 203.032818,58.7283989 203.032818,58.5056655 C203.032818,57.3455959 202.253252,56.5474679 200.963254,56.5474679 C199.487645,56.5474679 198.411101,57.9024293 198.411101,59.3409157 C198.411101,60.6309132 199.357718,61.4661634 200.55491,61.4661634 Z M202.039799,58.5149461 L199.515487,58.5149461 C199.738221,57.8653071 200.248651,57.3455959 200.963254,57.3455959 C201.650015,57.3455959 202.049079,57.8745876 202.049079,58.3942989 C202.049079,58.4314211 202.049079,58.4871044 202.039799,58.5149461 Z M205.102383,61.4661634 C205.993316,61.4661634 206.89353,60.9650133 206.89353,59.9719936 C206.89353,59.2388296 206.355258,58.9047295 205.854108,58.6541545 C205.408641,58.4221405 204.981735,58.2643711 204.981735,57.9117099 C204.981735,57.531207 205.325116,57.3270347 205.668497,57.3270347 C206.021158,57.3270347 206.420222,57.5590487 206.624394,57.763221 L207.264753,57.1692653 C206.89353,56.7794819 206.271733,56.5474679 205.677777,56.5474679 C204.926052,56.5474679 204.06296,57.0578986 204.06296,58.0045154 C204.06296,58.7191184 204.573391,59.0160962 205.05598,59.2573907 C205.492166,59.4708435 205.919072,59.628613 205.919072,60.0091159 C205.919072,60.4545826 205.547849,60.677316 205.167347,60.677316 C204.73116,60.677316 204.322816,60.4174604 204.072241,60.0833603 L203.413321,60.5845104 C203.756702,61.1784661 204.415621,61.4661634 205.102383,61.4661634 Z M209.54777,61.4661634 C210.22525,61.4661634 210.726401,61.1506244 211.144026,60.6587549 L211.032659,61.3547967 L211.960715,61.3547967 L212.795965,56.6588346 L211.830787,56.6588346 L211.273953,59.8049436 C210.902731,60.2504104 210.3923,60.6030715 209.835467,60.6030715 C209.297195,60.6030715 209.037339,60.3153743 209.037339,59.7678214 C209.037339,59.545088 209.083742,59.313074 209.120864,59.0996212 L209.55705,56.6588346 L208.582592,56.6588346 L208.155686,59.0903407 C208.109283,59.3501963 208.081442,59.6378936 208.081442,59.9070297 C208.081442,60.8722077 208.610433,61.4661634 209.54777,61.4661634 Z M214.429343,61.3547967 L215.663657,54.3943786 L214.698479,54.3943786 L213.464165,61.3547967 L214.429343,61.3547967 Z M217.454805,61.4476023 C217.770344,61.4476023 218.178688,61.3640773 218.410702,61.2248689 L218.21581,60.4731437 C218.03948,60.5752299 217.844588,60.6123521 217.70538,60.6123521 C217.38056,60.6123521 217.20423,60.4267409 217.20423,60.1204826 C217.20423,59.9627131 217.222791,59.8049436 217.259913,59.5914908 L217.640416,57.4848042 L218.902572,57.4848042 L219.04178,56.6588346 L217.779624,56.6588346 L217.974516,55.5544483 L217.055741,55.5544483 L216.814446,56.6588346 L216.192649,56.6588346 L216.04416,57.4848042 L216.665957,57.4848042 L216.276174,59.6657352 C216.239052,59.8791881 216.21121,60.0647992 216.21121,60.2689715 C216.21121,60.9464522 216.721641,61.4476023 217.454805,61.4476023 Z M220.647317,61.4661634 C221.53825,61.4661634 222.438464,60.9650133 222.438464,59.9719936 C222.438464,59.2388296 221.900192,58.9047295 221.399042,58.6541545 C220.953575,58.4221405 220.526669,58.2643711 220.526669,57.9117099 C220.526669,57.531207 220.87005,57.3270347 221.213431,57.3270347 C221.566092,57.3270347 221.965156,57.5590487 222.169328,57.763221 L222.809686,57.1692653 C222.438464,56.7794819 221.816667,56.5474679 221.222711,56.5474679 C220.470986,56.5474679 219.607894,57.0578986 219.607894,58.0045154 C219.607894,58.7191184 220.118325,59.0160962 220.600914,59.2573907 C221.0371,59.4708435 221.464006,59.628613 221.464006,60.0091159 C221.464006,60.4545826 221.092783,60.677316 220.71228,60.677316 C220.276094,60.677316 219.86775,60.4174604 219.617175,60.0833603 L218.958255,60.5845104 C219.301636,61.1784661 219.960555,61.4661634 220.647317,61.4661634 Z" id="CapturingFeedback.DrivingResults" fill="#3D3D4F"></path>
            </g>
        </g>
    </g>
</svg>