<svg xmlns="http://www.w3.org/2000/svg" width="54" height="25" viewBox="0 0 54 25">
    <g fill="none" fill-rule="evenodd">
        <g fill="#1ED500" fill-rule="nonzero">
            <path d="M59.887 41.977c-4.679-4.667-12.252-4.667-16.932 0l-3.562 3.563 2.452 2.452 3.563-3.563c3.321-3.317 8.703-3.316 12.022.005 3.32 3.32 3.32 8.702 0 12.022-3.319 3.32-8.7 3.322-12.022.004L30.925 41.977c-4.675-4.67-12.25-4.667-16.921.007-4.672 4.673-4.672 12.248 0 16.921 4.671 4.674 12.246 4.677 16.921.007l3.563-3.559-2.453-2.466-3.562 3.573c-3.321 3.319-8.704 3.318-12.024-.002-3.32-3.32-3.32-8.703 0-12.023 3.32-3.32 8.703-3.321 12.024-.002l14.482 14.48c3.013 3.086 7.453 4.314 11.623 3.214 4.17-1.1 7.428-4.357 8.527-8.528 1.098-4.17-.13-8.61-3.218-11.622z" transform="translate(-10 -38)"/>
        </g>
    </g>
</svg>
